<?xml version="1.0" standalone="no"?>
<!DOCTYPE svg PUBLIC "-//W3C//DTD SVG 20010904//EN"
 "http://www.w3.org/TR/2001/REC-SVG-20010904/DTD/svg10.dtd">
<svg version="1.0" xmlns="http://www.w3.org/2000/svg"
 width="2rem" height="2rem" viewBox="0 0 76.000000 148.000000"
 preserveAspectRatio="xMidYMid meet">

<g transform="translate(0.000000,148.000000) scale(0.100000,-0.100000)"
fill="#000000" stroke="none">
<path d="M501 1466 c-87 -48 -50 -186 49 -186 51 0 100 49 100 99 0 75 -83
124 -149 87z"/>
<path d="M637 1203 c-8 -10 -33 -59 -55 -109 -22 -50 -67 -129 -103 -177 -55
-75 -72 -91 -126 -116 -106 -52 -103 -52 -180 28 -45 47 -76 71 -91 71 -27 0
-62 -33 -62 -60 0 -20 150 -194 176 -204 32 -12 74 -5 140 24 37 17 69 29 71
26 2 -2 11 -48 18 -102 l14 -99 -51 -85 c-28 -47 -87 -128 -131 -180 -99 -119
-105 -131 -83 -165 17 -25 57 -34 83 -17 27 17 174 200 209 259 20 35 40 63
45 63 5 0 16 -14 24 -31 13 -24 16 -56 13 -151 -3 -119 -3 -121 23 -140 22
-16 29 -17 52 -7 35 16 37 25 40 189 l2 135 -54 77 -55 78 -18 131 -18 132 66
88 c67 90 145 250 146 301 1 15 -5 34 -12 43 -17 20 -63 19 -83 -2z"/>
<path d="M315 1111 c-45 -20 -70 -60 -70 -112 0 -42 5 -53 33 -81 28 -28 39
-33 82 -33 43 0 54 5 82 33 28 28 33 39 33 82 0 42 -5 54 -31 81 -33 33 -92
46 -129 30z"/>
</g>
</svg>
