<?xml version="1.0" standalone="no"?>
<!DOCTYPE svg PUBLIC "-//W3C//DTD SVG 20010904//EN"
 "http://www.w3.org/TR/2001/REC-SVG-20010904/DTD/svg10.dtd">
<svg version="1.0" xmlns="http://www.w3.org/2000/svg"
 width="2rem" height="2rem" viewBox="0 0 86.000000 143.000000"
 preserveAspectRatio="xMidYMid meet">

<g transform="translate(0.000000,143.000000) scale(0.100000,-0.100000)"
fill="#000000" stroke="none">
<path d="M562 1392 c-10 -10 -38 -72 -61 -137 -39 -111 -47 -124 -115 -199
-40 -45 -78 -90 -84 -101 -5 -11 -15 -85 -21 -163 -10 -135 -13 -149 -53 -239
-23 -53 -51 -104 -62 -114 -12 -9 -49 -40 -83 -68 -66 -54 -73 -72 -47 -109
27 -38 63 -29 157 43 78 60 87 71 118 140 19 41 37 75 40 75 3 0 16 -11 29
-25 l24 -25 -42 -43 c-63 -64 -57 -127 13 -127 26 0 44 12 98 69 91 94 91 107
-8 211 l-75 79 5 73 c14 180 9 165 94 259 74 82 79 90 124 216 26 72 47 138
47 147 0 22 -36 56 -60 56 -11 0 -28 -8 -38 -18z"/>
<path d="M724 1331 c-56 -24 -71 -100 -30 -148 20 -23 32 -28 71 -28 39 0 51
5 71 28 49 57 17 143 -56 152 -19 3 -45 1 -56 -4z"/>
<path d="M213 1260 c-61 -37 -79 -108 -43 -167 35 -58 102 -78 161 -48 63 33
86 112 49 172 -37 61 -108 79 -167 43z"/>
<path d="M741 1036 c-8 -9 -10 -152 -9 -512 l3 -499 25 0 25 0 3 499 c2 488 0
526 -28 526 -4 0 -13 -6 -19 -14z"/>
</g>
</svg>
