<?xml version="1.0" standalone="no"?>
<!DOCTYPE svg PUBLIC "-//W3C//DTD SVG 20010904//EN"
 "http://www.w3.org/TR/2001/REC-SVG-20010904/DTD/svg10.dtd">
<svg version="1.0" xmlns="http://www.w3.org/2000/svg"
 width="2rem" height="2rem" viewBox="0 0 139.000000 56.000000"
 preserveAspectRatio="xMidYMid meet">

<g transform="translate(0.000000,56.000000) scale(0.100000,-0.100000)"
fill="#000000" stroke="none">
<path d="M150 520 c-11 -11 -20 -27 -20 -35 0 -32 102 -218 138 -251 l37 -34
-26 -26 -26 -26 -78 51 c-85 56 -105 61 -135 31 -43 -43 -25 -71 92 -148 125
-82 139 -82 226 2 37 35 76 68 87 73 11 6 56 14 100 17 44 4 88 10 98 12 12 4
42 -18 98 -72 l80 -78 164 -9 c146 -8 168 -7 190 7 17 11 25 26 25 46 0 47
-27 57 -185 64 l-140 7 -70 69 c-38 38 -83 74 -98 79 -21 8 -64 7 -160 -4
l-131 -16 -41 28 c-29 21 -53 53 -88 118 -62 119 -92 140 -137 95z"/>
<path d="M865 491 c-45 -20 -70 -60 -70 -112 0 -42 5 -53 33 -81 47 -48 117
-48 164 0 28 28 33 39 33 82 0 42 -5 54 -31 81 -33 33 -92 46 -129 30z"/>
<path d="M1254 331 c-56 -24 -71 -100 -30 -148 20 -23 32 -28 71 -28 39 0 51
5 71 28 49 57 17 143 -56 152 -19 3 -45 1 -56 -4z"/>
</g>
</svg>
