<?xml version="1.0" standalone="no"?>
<!DOCTYPE svg PUBLIC "-//W3C//DTD SVG 20010904//EN"
 "http://www.w3.org/TR/2001/REC-SVG-20010904/DTD/svg10.dtd">
<svg version="1.0" xmlns="http://www.w3.org/2000/svg"
 width="2rem" height="2rem" viewBox="0 0 63.000000 152.000000"
 preserveAspectRatio="xMidYMid meet">

<g transform="translate(0.000000,152.000000) scale(0.100000,-0.100000)"
fill="#000000" stroke="none">
<path d="M234 1486 c-47 -47 -47 -95 0 -142 26 -26 42 -34 71 -34 52 0 105 53
105 105 0 52 -53 105 -105 105 -29 0 -45 -8 -71 -34z"/>
<path d="M40 1130 c-27 -27 -26 -38 16 -162 l36 -108 79 -71 79 -72 0 -114 0
-115 -57 -81 -57 -81 -9 -128 c-8 -112 -7 -131 7 -153 11 -17 26 -25 45 -25
43 0 61 27 62 96 1 105 14 170 39 208 14 20 30 36 35 36 6 0 21 -16 35 -36 25
-38 38 -103 39 -210 1 -46 6 -65 19 -77 28 -25 69 -21 88 8 14 22 15 41 7 153
l-9 128 -57 81 -57 81 0 115 0 114 79 72 79 71 36 108 c42 124 43 135 16 162
-49 49 -87 16 -124 -106 -25 -84 -31 -92 -89 -146 l-61 -57 -60 53 c-57 50
-62 58 -92 152 -18 54 -41 104 -50 111 -25 19 -51 16 -74 -7z"/>
<path d="M248 1114 c-76 -41 -74 -159 2 -199 57 -30 127 -10 155 45 53 103
-55 210 -157 154z"/>
</g>
</svg>
