<?xml version="1.0" standalone="no"?>
<!DOCTYPE svg PUBLIC "-//W3C//DTD SVG 20010904//EN"
 "http://www.w3.org/TR/2001/REC-SVG-20010904/DTD/svg10.dtd">
<svg version="1.0" xmlns="http://www.w3.org/2000/svg"
 width="2rem" height="2rem" viewBox="0 0 75.000000 140.000000"
 preserveAspectRatio="xMidYMid meet">

<g transform="translate(0.000000,140.000000) scale(0.100000,-0.100000)"
fill="#000000" stroke="none">
<path d="M161 1386 c-87 -48 -50 -186 49 -186 51 0 100 49 100 99 0 75 -83
124 -149 87z"/>
<path d="M647 1193 c-10 -3 -72 -86 -139 -186 -66 -100 -124 -186 -128 -191
-11 -11 -146 12 -158 27 -5 7 -29 56 -53 111 -47 107 -69 128 -114 108 -44
-20 -41 -50 17 -183 33 -77 62 -129 78 -141 14 -10 65 -25 115 -34 49 -8 92
-17 96 -20 4 -2 24 -47 45 -98 l37 -95 -42 -70 c-48 -79 -36 -74 -211 -86 -47
-4 -95 -13 -107 -21 -29 -18 -30 -57 -2 -85 19 -19 29 -21 93 -15 39 3 109 9
155 12 73 6 88 10 108 32 14 16 23 20 23 11 0 -8 -46 -45 -102 -84 -114 -78
-136 -109 -103 -145 32 -35 64 -25 191 60 143 96 150 107 134 217 -5 41 -10
97 -10 124 0 35 -14 85 -45 168 -25 65 -45 124 -45 130 0 7 56 96 125 198 69
102 125 192 125 200 0 15 -44 64 -57 62 -4 -1 -16 -3 -26 -6z"/>
<path d="M263 1110 c-61 -37 -79 -108 -43 -167 35 -58 102 -78 161 -48 63 33
86 112 49 172 -37 61 -108 79 -167 43z"/>
</g>
</svg>
